<?xml version="1.0" standalone="no"?>
<!DOCTYPE svg PUBLIC "-//W3C//DTD SVG 20010904//EN"
 "http://www.w3.org/TR/2001/REC-SVG-20010904/DTD/svg10.dtd">
<svg version="1.0" xmlns="http://www.w3.org/2000/svg"
 width="1001.000000pt" height="1001.000000pt" viewBox="0 0 1001.000000 1001.000000"
 preserveAspectRatio="xMidYMid meet">
<metadata>
Created by potrace 1.11, written by Peter Selinger 2001-2013
</metadata>
<g transform="translate(0.000000,1001.000000) scale(0.100000,-0.100000)"
fill="#000000" stroke="none">
<path d="M1013 9053 c-6 -15 4 -570 12 -718 6 -104 17 -299 20 -350 4 -72 16
-219 20 -255 2 -19 7 -70 10 -113 4 -43 8 -86 10 -95 1 -9 6 -53 9 -97 4 -44
9 -87 11 -95 2 -8 6 -42 10 -75 3 -33 8 -71 10 -85 2 -14 11 -79 20 -145 9
-66 22 -158 30 -205 8 -47 17 -103 20 -125 4 -22 8 -47 10 -55 3 -8 7 -33 10
-55 4 -22 17 -96 31 -165 13 -69 26 -135 29 -148 2 -13 6 -31 9 -40 3 -9 8
-33 11 -52 3 -19 17 -82 31 -140 13 -58 26 -114 29 -125 26 -123 107 -420 162
-595 20 -63 37 -119 39 -125 6 -30 118 -351 130 -374 8 -14 14 -31 14 -37 0
-6 27 -78 59 -160 262 -664 581 -1248 970 -1779 435 -595 953 -1101 1516
-1482 243 -164 444 -275 709 -393 62 -27 71 -25 287 81 339 167 761 450 1054
710 17 14 57 50 90 79 78 69 311 296 400 392 172 184 251 278 498 599 131 169
417 622 550 869 82 151 216 426 277 565 29 66 60 138 70 160 201 460 433 1205
546 1755 21 103 74 371 78 395 3 17 16 98 30 180 14 83 28 173 32 200 3 28 7
57 9 65 1 8 6 40 10 70 3 30 8 66 10 80 2 14 7 50 10 80 3 30 8 66 10 80 2 14
7 57 10 95 4 39 8 81 10 95 4 26 13 121 20 205 16 203 19 242 30 415 11 160
15 286 21 606 l7 321 -3998 0 c-3467 0 -3997 -2 -4002 -14z"/>
</g>
</svg>
